<?xml version="1.0" encoding="utf-8"?>
<!-- Generator: Adobe Illustrator 23.0.4, SVG Export Plug-In . SVG Version: 6.00 Build 0)  -->
<svg version="1.1" id="Capa_1" xmlns="http://www.w3.org/2000/svg" xmlns:xlink="http://www.w3.org/1999/xlink" x="0px" y="0px"
	 viewBox="0 0 512 512" style="enable-background:new 0 0 512 512;" xml:space="preserve">
<style type="text/css">
	.st0{fill:#FFFFFF;}
</style>
<g>
	<path class="st0" d="M336,112H48c-8.8,0-16,7.2-16,16v352c0,17.7,14.3,32,32,32h256c17.7,0,32-14.3,32-32V128
		C352,119.2,344.8,112,336,112z"/>
	<path class="st0" d="M192,80c8.8,0,16-7.2,16-16V16c0-8.8-7.2-16-16-16s-16,7.2-16,16v48C176,72.8,183.2,80,192,80z"/>
	<path class="st0" d="M256,80c8.8,0,16-7.2,16-16V48c0-8.8-7.2-16-16-16s-16,7.2-16,16v16C240,72.8,247.2,80,256,80z"/>
	<path class="st0" d="M128,80c8.8,0,16-7.2,16-16V48c0-8.8-7.2-16-16-16s-16,7.2-16,16v16C112,72.8,119.2,80,128,80z"/>
	<path class="st0" d="M384,176v64c17.6,0,32,14.4,32,32v64c0,17.6-14.4,32-32,32v64c52.9,0,96-43.1,96-96v-64
		C480,219.1,436.9,176,384,176z"/>
</g>
</svg>
